<svg xmlns="http://www.w3.org/2000/svg" version="1.1" xmlns:xlink="http://www.w3.org/1999/xlink" xmlns:svgjs="http://svgjs.dev/svgjs" width="350" height="200.54999999999998"><g><svg viewBox="0 0 395.52 247.2" height="200.54999999999998" width="350" xmlns="http://www.w3.org/2000/svg" version="1.1" xmlns:xlink="http://www.w3.org/1999/xlink" xmlns:svgjs="http://svgjs.com/svgjs" x="0" y="0" viewbox="0 0 350 200.54999999999998"><g><svg></svg></g><g><svg viewBox="0 0 395.52 247.2" height="247.2" width="395.52"><g transform="matrix(1,0,0,1,75.54432,105.52949763616387)"><svg viewBox="0 0 244.43135999999998 36.14100472767226" height="36.14100472767226" width="244.43135999999998"><g><svg viewBox="0 0 244.43135999999998 36.14100472767226" height="36.14100472767226" width="244.43135999999998"><g><svg viewBox="0 0 244.43135999999998 36.14100472767226" height="36.14100472767226" width="244.43135999999998"><g><svg viewBox="0 0 244.43135999999998 36.14100472767226" height="36.14100472767226" width="244.43135999999998"><g><svg viewBox="0 0 244.43135999999998 36.14100472767226" height="36.14100472767226" width="244.43135999999998"><g><svg viewBox="0 0 244.43135999999998 36.14100472767226" height="36.14100472767226" width="244.43135999999998"><g transform="matrix(1,0,0,1,0,0)"><svg width="244.43135999999998" viewBox="-0.8 -46.75 318.52000000000004 47.1" height="36.14100472767226" data-palette-color="#ffa458"><path d="M48.7-11.15Q49.35-11.15 49.73-10.55 50.1-9.95 50.1-8.9L50.1-8.9Q50.1-6.95 49.15-5.8L49.15-5.8Q44.2 0.25 38.6 0.25L38.6 0.25Q33.75 0.25 30.85-3.5 27.95-7.25 27.95-14.25L27.95-14.25Q27.95-15.95 28.1-17.65L28.1-17.65Q24.8-17.05 20.9-16.75L20.9-16.75Q18.3-16.55 17.35-16.5L17.35-16.5Q16.35-11.4 14.55-4L14.55-4Q13.5 0.35 10.55 0.35L10.55 0.35Q7.35 0.35 7.35-2.55L7.35-2.55Q7.35-3.2 7.6-4.35L7.6-4.35Q9.3-11.2 10.3-15.95L10.3-15.95 7.9-15.85Q6.25-15.85 5.5-16.43 4.75-17 4.75-18.3L4.75-18.3Q4.75-19.95 5.7-20.73 6.65-21.5 8.85-21.6L8.85-21.6 11.5-21.7Q12.8-28.75 12.8-32.45L12.8-32.45Q12.8-34.8 12.1-35.65 11.4-36.5 10.25-36.5L10.25-36.5Q6.75-36.5 2.35-30.65L2.35-30.65Q1.7-29.8 0.9-29.8L0.9-29.8Q0.2-29.8-0.3-30.45-0.8-31.1-0.8-32.1L-0.8-32.1Q-0.8-33.65 0.45-35.4L0.45-35.4Q2.65-38.45 6-40.43 9.35-42.4 12.8-42.4L12.8-42.4Q16.05-42.4 17.82-40.18 19.6-37.95 19.6-33.25L19.6-33.25Q19.6-29.1 18.4-22L18.4-22 23.3-22.25Q26.45-22.4 28.7-22.75L28.7-22.75Q29.6-28.25 31.45-33.05 33.3-37.85 36.05-40.85 38.8-43.85 42.2-43.85L42.2-43.85Q44.7-43.85 46.15-41.88 47.6-39.9 47.6-36.7L47.6-36.7Q47.6-24.3 34.95-19.5L34.95-19.5Q34.8-17.5 34.8-15.35L34.8-15.35Q34.8-10.1 36.1-7.9 37.4-5.7 39.75-5.7L39.75-5.7Q41.8-5.7 43.5-6.78 45.2-7.85 47.35-10.45L47.35-10.45Q47.95-11.15 48.7-11.15L48.7-11.15ZM41.95-39.5Q40.85-39.5 39.63-37.5 38.4-35.5 37.3-32.05 36.2-28.6 35.55-24.5L35.55-24.5Q39.55-26.15 41.45-29.2 43.35-32.25 43.35-37.05L43.35-37.05Q43.35-38.2 42.95-38.85 42.55-39.5 41.95-39.5L41.95-39.5ZM78.05-15.35Q78.7-15.35 79.05-14.7 79.4-14.05 79.4-13.05L79.4-13.05Q79.4-10.65 77.95-10.2L77.95-10.2Q74.95-9.15 71.35-9L71.35-9Q70.4-4.8 67.6-2.27 64.8 0.25 61.25 0.25L61.25 0.25Q58.25 0.25 56.12-1.2 54-2.65 52.9-5.05 51.8-7.45 51.8-10.25L51.8-10.25Q51.8-14.05 53.25-17.03 54.7-20 57.25-21.68 59.8-23.35 62.9-23.35L62.9-23.35Q66.7-23.35 69.02-20.73 71.35-18.1 71.75-14.25L71.75-14.25Q74.1-14.4 77.35-15.25L77.35-15.25Q77.75-15.35 78.05-15.35L78.05-15.35ZM61.65-5.05Q63.25-5.05 64.42-6.35 65.6-7.65 66-10.1L66-10.1Q64.45-11.15 63.62-12.85 62.8-14.55 62.8-16.45L62.8-16.45Q62.8-17.25 62.95-18.05L62.95-18.05 62.7-18.05Q60.7-18.05 59.37-16.13 58.05-14.2 58.05-10.7L58.05-10.7Q58.05-7.95 59.12-6.5 60.2-5.05 61.65-5.05L61.65-5.05ZM78.65 0.25Q76.75 0.25 75.97-1.75 75.2-3.75 75.2-8.15L75.2-8.15Q75.2-14.65 77.05-20.5L77.05-20.5Q77.5-21.95 78.52-22.63 79.55-23.3 81.4-23.3L81.4-23.3Q82.4-23.3 82.8-23.05 83.2-22.8 83.2-22.1L83.2-22.1Q83.2-21.3 82.45-18.5L82.45-18.5Q81.95-16.5 81.65-15.03 81.35-13.55 81.15-11.35L81.15-11.35Q82.5-15.25 84.37-17.95 86.25-20.65 88.22-21.98 90.2-23.3 91.95-23.3L91.95-23.3Q93.7-23.3 94.42-22.5 95.15-21.7 95.15-20.05L95.15-20.05Q95.15-18.45 94.2-14.25L94.2-14.25Q93.8-12.45 93.65-11.55L93.65-11.55Q96.15-17.7 99.2-20.5 102.25-23.3 104.9-23.3L104.9-23.3Q108.15-23.3 108.15-20.05L108.15-20.05Q108.15-18.1 107.05-13L107.05-13Q106.09-8.65 106.09-7.25L106.09-7.25Q106.09-5.25 107.55-5.25L107.55-5.25Q108.55-5.25 109.92-6.48 111.3-7.7 113.6-10.45L113.6-10.45Q114.2-11.15 114.95-11.15L114.95-11.15Q115.6-11.15 115.97-10.55 116.35-9.95 116.35-8.9L116.35-8.9Q116.35-6.9 115.4-5.8L115.4-5.8Q113.25-3.15 110.77-1.45 108.3 0.25 105.15 0.25L105.15 0.25Q102.6 0.25 101.3-1.23 100-2.7 100-5.5L100-5.5Q100-6.9 100.7-10.5L100.7-10.5Q101.35-13.65 101.35-14.85L101.35-14.85Q101.35-15.65 100.8-15.65L100.8-15.65Q100.15-15.65 98.95-13.98 97.75-12.3 96.55-9.55 95.35-6.8 94.6-3.75L94.6-3.75Q94.05-1.35 93.32-0.55 92.6 0.25 91 0.25L91 0.25Q89.35 0.25 88.52-1.33 87.7-2.9 87.7-5.15L87.7-5.15Q87.7-7.05 88.2-10.65L88.2-10.65Q88.6-13.85 88.6-14.85L88.6-14.85Q88.6-15.65 88.05-15.65L88.05-15.65Q87.3-15.65 86.15-13.85 85-12.05 83.92-9.25 82.85-6.45 82.2-3.75L82.2-3.75Q81.65-1.4 80.92-0.58 80.2 0.25 78.65 0.25L78.65 0.25ZM118.84-26.6Q116.74-26.6 115.69-27.58 114.64-28.55 114.64-30.3L114.64-30.3Q114.64-32.05 116.02-33.23 117.39-34.4 119.44-34.4L119.44-34.4Q121.29-34.4 122.44-33.5 123.59-32.6 123.59-30.95L123.59-30.95Q123.59-28.95 122.29-27.78 120.99-26.6 118.84-26.6L118.84-26.6ZM118.44 0.25Q115.19 0.25 113.72-2.05 112.24-4.35 112.24-8.15L112.24-8.15Q112.24-10.4 112.82-13.93 113.39-17.45 114.29-20.5L114.29-20.5Q114.74-22.1 115.49-22.7 116.24-23.3 117.89-23.3L117.89-23.3Q120.44-23.3 120.44-21.6L120.44-21.6Q120.44-20.35 119.49-15.8L119.49-15.8Q118.29-10.3 118.29-8.35L118.29-8.35Q118.29-6.85 118.69-6.05 119.09-5.25 120.04-5.25L120.04-5.25Q120.94-5.25 122.29-6.5 123.64-7.75 125.89-10.45L125.89-10.45Q126.49-11.15 127.24-11.15L127.24-11.15Q127.89-11.15 128.27-10.55 128.64-9.95 128.64-8.9L128.64-8.9Q128.64-6.9 127.69-5.8L127.69-5.8Q122.74 0.25 118.44 0.25L118.44 0.25ZM146.89-11.15Q147.54-11.15 147.92-10.55 148.29-9.95 148.29-8.9L148.29-8.9Q148.29-6.9 147.34-5.8L147.34-5.8Q145.49-3.55 142.12-1.65 138.74 0.25 134.89 0.25L134.89 0.25Q129.64 0.25 126.74-2.6 123.84-5.45 123.84-10.4L123.84-10.4Q123.84-13.85 125.29-16.82 126.74-19.8 129.31-21.55 131.89-23.3 135.14-23.3L135.14-23.3Q138.04-23.3 139.79-21.58 141.54-19.85 141.54-16.9L141.54-16.9Q141.54-13.45 139.06-10.98 136.59-8.5 130.69-7.05L130.69-7.05Q131.94-4.75 135.44-4.75L135.44-4.75Q137.69-4.75 140.56-6.33 143.44-7.9 145.54-10.45L145.54-10.45Q146.14-11.15 146.89-11.15L146.89-11.15ZM134.29-18.4Q132.44-18.4 131.17-16.25 129.89-14.1 129.89-11.05L129.89-11.05 129.89-10.95Q132.84-11.65 134.54-13.05 136.24-14.45 136.24-16.3L136.24-16.3Q136.24-17.25 135.72-17.82 135.19-18.4 134.29-18.4L134.29-18.4ZM152.19 0.25Q151.04 0.25 150.16-0.58 149.29-1.4 149.29-2.75L149.29-2.75Q149.29-3.85 149.99-5.15L149.99-5.15 170.94-44.5Q171.54-45.65 172.31-46.2 173.09-46.75 173.89-46.75L173.89-46.75Q175.04-46.75 175.86-45.83 176.69-44.9 176.69-43.55L176.69-43.55Q176.69-42.45 176.14-41.5L176.14-41.5 154.74-1.35Q154.29-0.55 153.61-0.15 152.94 0.25 152.19 0.25L152.19 0.25ZM180.24 0.25Q178.34 0.25 177.56-1.75 176.79-3.75 176.79-8.15L176.79-8.15Q176.79-14.65 178.64-20.5L178.64-20.5Q179.09-21.95 180.11-22.63 181.14-23.3 182.99-23.3L182.99-23.3Q183.99-23.3 184.39-23.05 184.79-22.8 184.79-22.1L184.79-22.1Q184.79-21.3 184.04-18.5L184.04-18.5Q183.54-16.5 183.24-15 182.94-13.5 182.74-11.3L182.74-11.3Q184.39-15.6 186.44-18.3 188.49-21 190.46-22.15 192.44-23.3 194.09-23.3L194.09-23.3Q197.34-23.3 197.34-20.05L197.34-20.05Q197.34-19.4 196.89-16.9L196.89-16.9Q196.49-14.9 196.49-14.4L196.49-14.4Q196.49-12.65 197.74-12.65L197.74-12.65Q199.14-12.65 201.34-14.85L201.34-14.85Q201.99-15.5 202.69-15.5L202.69-15.5Q203.34-15.5 203.71-14.93 204.09-14.35 204.09-13.4L204.09-13.4Q204.09-11.55 203.09-10.5L203.09-10.5Q201.69-9.05 199.81-8.03 197.94-7 195.84-7L195.84-7Q193.19-7 191.81-8.35 190.44-9.7 190.44-12L190.44-12Q190.44-12.75 190.59-13.5L190.59-13.5Q190.69-14.5 190.69-14.85L190.69-14.85Q190.69-15.65 190.14-15.65L190.14-15.65Q189.39-15.65 188.16-13.98 186.94-12.3 185.74-9.55 184.54-6.8 183.79-3.75L183.79-3.75Q183.24-1.4 182.51-0.58 181.79 0.25 180.24 0.25L180.24 0.25ZM224.93-15.35Q225.58-15.35 225.93-14.7 226.28-14.05 226.28-13.05L226.28-13.05Q226.28-10.65 224.83-10.2L224.83-10.2Q221.83-9.15 218.23-9L218.23-9Q217.28-4.8 214.48-2.27 211.68 0.25 208.13 0.25L208.13 0.25Q205.13 0.25 203.01-1.2 200.88-2.65 199.78-5.05 198.68-7.45 198.68-10.25L198.68-10.25Q198.68-14.05 200.13-17.03 201.58-20 204.13-21.68 206.68-23.35 209.78-23.35L209.78-23.35Q213.58-23.35 215.91-20.73 218.23-18.1 218.63-14.25L218.63-14.25Q220.98-14.4 224.23-15.25L224.23-15.25Q224.63-15.35 224.93-15.35L224.93-15.35ZM208.53-5.05Q210.13-5.05 211.31-6.35 212.48-7.65 212.88-10.1L212.88-10.1Q211.33-11.15 210.51-12.85 209.68-14.55 209.68-16.45L209.68-16.45Q209.68-17.25 209.83-18.05L209.83-18.05 209.58-18.05Q207.58-18.05 206.26-16.13 204.93-14.2 204.93-10.7L204.93-10.7Q204.93-7.95 206.01-6.5 207.08-5.05 208.53-5.05L208.53-5.05ZM247.48-15.35Q248.13-15.35 248.48-14.7 248.83-14.05 248.83-13.05L248.83-13.05Q248.83-10.65 247.38-10.2L247.38-10.2Q244.38-9.15 240.78-9L240.78-9Q239.83-4.8 237.03-2.27 234.23 0.25 230.68 0.25L230.68 0.25Q227.68 0.25 225.56-1.2 223.43-2.65 222.33-5.05 221.23-7.45 221.23-10.25L221.23-10.25Q221.23-14.05 222.68-17.03 224.13-20 226.68-21.68 229.23-23.35 232.33-23.35L232.33-23.35Q236.13-23.35 238.46-20.73 240.78-18.1 241.18-14.25L241.18-14.25Q243.53-14.4 246.78-15.25L246.78-15.25Q247.18-15.35 247.48-15.35L247.48-15.35ZM231.08-5.05Q232.68-5.05 233.86-6.35 235.03-7.65 235.43-10.1L235.43-10.1Q233.88-11.15 233.06-12.85 232.23-14.55 232.23-16.45L232.23-16.45Q232.23-17.25 232.38-18.05L232.38-18.05 232.13-18.05Q230.13-18.05 228.81-16.13 227.48-14.2 227.48-10.7L227.48-10.7Q227.48-7.95 228.56-6.5 229.63-5.05 231.08-5.05L231.08-5.05ZM248.08 0.25Q246.18 0.25 245.4-1.75 244.63-3.75 244.63-8.15L244.63-8.15Q244.63-14.65 246.48-20.5L246.48-20.5Q246.93-21.95 247.95-22.63 248.98-23.3 250.83-23.3L250.83-23.3Q251.83-23.3 252.23-23.05 252.63-22.8 252.63-22.1L252.63-22.1Q252.63-21.3 251.88-18.5L251.88-18.5Q251.38-16.5 251.08-15.03 250.78-13.55 250.58-11.35L250.58-11.35Q251.93-15.25 253.8-17.95 255.68-20.65 257.65-21.98 259.63-23.3 261.38-23.3L261.38-23.3Q263.13-23.3 263.85-22.5 264.58-21.7 264.58-20.05L264.58-20.05Q264.58-18.45 263.63-14.25L263.63-14.25Q263.23-12.45 263.08-11.55L263.08-11.55Q265.58-17.7 268.63-20.5 271.68-23.3 274.33-23.3L274.33-23.3Q277.58-23.3 277.58-20.05L277.58-20.05Q277.58-18.1 276.48-13L276.48-13Q275.53-8.65 275.53-7.25L275.53-7.25Q275.53-5.25 276.98-5.25L276.98-5.25Q277.98-5.25 279.35-6.48 280.73-7.7 283.03-10.45L283.03-10.45Q283.63-11.15 284.38-11.15L284.38-11.15Q285.03-11.15 285.4-10.55 285.78-9.95 285.78-8.9L285.78-8.9Q285.78-6.9 284.83-5.8L284.83-5.8Q282.68-3.15 280.2-1.45 277.73 0.25 274.58 0.25L274.58 0.25Q272.03 0.25 270.73-1.23 269.43-2.7 269.43-5.5L269.43-5.5Q269.43-6.9 270.13-10.5L270.13-10.5Q270.78-13.65 270.78-14.85L270.78-14.85Q270.78-15.65 270.23-15.65L270.23-15.65Q269.58-15.65 268.38-13.98 267.18-12.3 265.98-9.55 264.78-6.8 264.03-3.75L264.03-3.75Q263.48-1.35 262.75-0.55 262.03 0.25 260.43 0.25L260.43 0.25Q258.78 0.25 257.95-1.33 257.13-2.9 257.13-5.15L257.13-5.15Q257.13-7.05 257.63-10.65L257.63-10.65Q258.03-13.85 258.03-14.85L258.03-14.85Q258.03-15.65 257.48-15.65L257.48-15.65Q256.73-15.65 255.58-13.85 254.43-12.05 253.35-9.25 252.28-6.45 251.63-3.75L251.63-3.75Q251.08-1.4 250.35-0.58 249.63 0.25 248.08 0.25L248.08 0.25ZM288.28-26.6Q286.18-26.6 285.13-27.58 284.08-28.55 284.08-30.3L284.08-30.3Q284.08-32.05 285.45-33.23 286.83-34.4 288.88-34.4L288.88-34.4Q290.73-34.4 291.88-33.5 293.03-32.6 293.03-30.95L293.03-30.95Q293.03-28.95 291.73-27.78 290.43-26.6 288.28-26.6L288.28-26.6ZM287.88 0.25Q284.63 0.25 283.15-2.05 281.68-4.35 281.68-8.15L281.68-8.15Q281.68-10.4 282.25-13.93 282.83-17.45 283.73-20.5L283.73-20.5Q284.18-22.1 284.93-22.7 285.68-23.3 287.33-23.3L287.33-23.3Q289.88-23.3 289.88-21.6L289.88-21.6Q289.88-20.35 288.93-15.8L288.93-15.8Q287.73-10.3 287.73-8.35L287.73-8.35Q287.73-6.85 288.13-6.05 288.53-5.25 289.48-5.25L289.48-5.25Q290.38-5.25 291.73-6.5 293.08-7.75 295.33-10.45L295.33-10.45Q295.93-11.15 296.68-11.15L296.68-11.15Q297.33-11.15 297.7-10.55 298.08-9.95 298.08-8.9L298.08-8.9Q298.08-6.9 297.13-5.8L297.13-5.8Q292.18 0.25 287.88 0.25L287.88 0.25ZM316.32-11.15Q316.97-11.15 317.35-10.55 317.72-9.95 317.72-8.9L317.72-8.9Q317.72-6.9 316.77-5.8L316.77-5.8Q314.92-3.55 311.55-1.65 308.17 0.25 304.32 0.25L304.32 0.25Q299.07 0.25 296.17-2.6 293.27-5.45 293.27-10.4L293.27-10.4Q293.27-13.85 294.72-16.82 296.17-19.8 298.75-21.55 301.32-23.3 304.57-23.3L304.57-23.3Q307.47-23.3 309.22-21.58 310.97-19.85 310.97-16.9L310.97-16.9Q310.97-13.45 308.5-10.98 306.02-8.5 300.12-7.05L300.12-7.05Q301.37-4.75 304.87-4.75L304.87-4.75Q307.12-4.75 310-6.33 312.87-7.9 314.97-10.45L314.97-10.45Q315.57-11.15 316.32-11.15L316.32-11.15ZM303.72-18.4Q301.87-18.4 300.6-16.25 299.32-14.1 299.32-11.05L299.32-11.05 299.32-10.95Q302.27-11.65 303.97-13.05 305.67-14.45 305.67-16.3L305.67-16.3Q305.67-17.25 305.15-17.82 304.62-18.4 303.72-18.4L303.72-18.4Z" opacity="1" transform="matrix(1,0,0,1,0,0)" fill="#ffa458" class="undefined-text-0" data-fill-palette-color="primary" id="text-0"></path></svg></g></svg></g></svg></g></svg></g></svg></g></svg></g></svg></g><path d="M180.578 99.529L180.578 36.504 6.386 36.504 6.386 210.696 180.578 210.696 180.578 147.671 177.319 147.671 177.319 207.437 9.645 207.437 9.645 39.763 177.319 39.763 177.319 99.529Z" fill="#ffa458" stroke="transparent" data-fill-palette-color="primary"></path></svg></g><defs></defs></svg></g></svg>